<mxfile host="app.diagrams.net" modified="2023-11-22T16:18:50.635Z" agent="Mozilla/5.0 (Windows NT 10.0; Win64; x64) AppleWebKit/537.36 (KHTML, like Gecko) Chrome/119.0.0.0 Safari/537.36" etag="Ut2Svbp2yxBGmMqEDaQu" version="22.1.3" type="github">
  <diagram name="Page-1" id="KAeuz9xyCuL35Dqoycsq">
    <mxGraphModel dx="1028" dy="562" grid="1" gridSize="10" guides="1" tooltips="1" connect="1" arrows="1" fold="1" page="1" pageScale="1" pageWidth="850" pageHeight="1100" math="0" shadow="0">
      <root>
        <mxCell id="0" />
        <mxCell id="1" parent="0" />
        <mxCell id="Qkq9aJakOe-U0SZYqxbO-21" value="" style="group" parent="1" vertex="1" connectable="0">
          <mxGeometry x="349" y="60" width="119" height="104" as="geometry" />
        </mxCell>
        <mxCell id="Qkq9aJakOe-U0SZYqxbO-3" value="" style="sketch=0;pointerEvents=1;shadow=0;dashed=0;html=1;strokeColor=none;fillColor=#505050;labelPosition=center;verticalLabelPosition=bottom;verticalAlign=top;outlineConnect=0;align=center;shape=mxgraph.office.servers.windows_server;" parent="Qkq9aJakOe-U0SZYqxbO-21" vertex="1">
          <mxGeometry x="33.5" width="52" height="55" as="geometry" />
        </mxCell>
        <mxCell id="Qkq9aJakOe-U0SZYqxbO-13" value="SRV-1" style="rounded=1;arcSize=9;align=center;spacingLeft=5;strokeColor=#4C9AFF;html=1;strokeWidth=2;fontSize=12" parent="Qkq9aJakOe-U0SZYqxbO-21" vertex="1">
          <mxGeometry y="71" width="119" height="33" as="geometry" />
        </mxCell>
        <mxCell id="Qkq9aJakOe-U0SZYqxbO-29" value="" style="group" parent="1" vertex="1" connectable="0">
          <mxGeometry x="468" y="250" width="79" height="73" as="geometry" />
        </mxCell>
        <mxCell id="Qkq9aJakOe-U0SZYqxbO-27" value="" style="image;sketch=0;aspect=fixed;html=1;points=[];align=center;fontSize=12;image=img/lib/mscae/VirtualMachineWindows.svg;" parent="Qkq9aJakOe-U0SZYqxbO-29" vertex="1">
          <mxGeometry x="17.75999999999999" width="43.48" height="40" as="geometry" />
        </mxCell>
        <mxCell id="Qkq9aJakOe-U0SZYqxbO-28" value="USER-2" style="rounded=1;arcSize=9;align=center;spacingLeft=5;strokeColor=#4C9AFF;html=1;strokeWidth=2;fontSize=12" parent="Qkq9aJakOe-U0SZYqxbO-29" vertex="1">
          <mxGeometry y="49.61165048543688" width="79" height="23.388349514563107" as="geometry" />
        </mxCell>
        <mxCell id="Qkq9aJakOe-U0SZYqxbO-31" value="" style="group" parent="1" vertex="1" connectable="0">
          <mxGeometry x="270" y="250" width="79" height="73" as="geometry" />
        </mxCell>
        <mxCell id="Qkq9aJakOe-U0SZYqxbO-23" value="" style="image;sketch=0;aspect=fixed;html=1;points=[];align=center;fontSize=12;image=img/lib/mscae/VirtualMachineWindows.svg;" parent="Qkq9aJakOe-U0SZYqxbO-31" vertex="1">
          <mxGeometry x="17.75999999999999" width="43.48" height="40" as="geometry" />
        </mxCell>
        <mxCell id="Qkq9aJakOe-U0SZYqxbO-25" value="USER-1" style="rounded=1;arcSize=9;align=center;spacingLeft=5;strokeColor=#4C9AFF;html=1;strokeWidth=2;fontSize=12" parent="Qkq9aJakOe-U0SZYqxbO-31" vertex="1">
          <mxGeometry y="49.61165048543688" width="79" height="23.388349514563107" as="geometry" />
        </mxCell>
        <mxCell id="Qkq9aJakOe-U0SZYqxbO-33" value="" style="group" parent="1" vertex="1" connectable="0">
          <mxGeometry x="369" y="380" width="79" height="73" as="geometry" />
        </mxCell>
        <mxCell id="Qkq9aJakOe-U0SZYqxbO-19" value="ATTACKER" style="rounded=1;arcSize=9;align=center;spacingLeft=5;strokeColor=#4C9AFF;html=1;strokeWidth=2;fontSize=12" parent="Qkq9aJakOe-U0SZYqxbO-33" vertex="1">
          <mxGeometry y="49.61165048543688" width="79" height="23.388349514563107" as="geometry" />
        </mxCell>
        <mxCell id="Qkq9aJakOe-U0SZYqxbO-30" value="" style="shape=image;verticalLabelPosition=bottom;verticalAlign=top;imageAspect=0;aspect=fixed;image=data:image/png,iVBORw0KGgoAAAANSUhEUgAAAEgAAABICAQAAAD/5HvMAAAABGdBTUEAALGPC/xhBQAAACBjSFJNAAB6JgAAgIQAAPoAAACA6AAAdTAAAOpgAAA6mAAAF3CculE8AAAAAmJLR0QA/4ePzL8AAAAJcEhZcwAABqcAAAanAWhnVFQAAAAHdElNRQfmCRkCCjDzeiQTAAAK0klEQVRo3tXaeZjV5XUH8M+djZmBAQRHQWRfBSKkKIuGCG5JsVqfVK1Gn0iTEPOojdb2QbOoCUZjqibG1ESetNK4JEWjqESLJkhBAxUFQQUE2QYQZDYYhmG2e+/bP7ze/O69w8wAWtszf73nd37n933f9+x3+D9GsWPWUKREsXzENTkk/mkBKjXYOJ8xVB/dFQpa1Nlts7e8ZYfmj/no2t3EAF+3wE6tgiBIiktIplbNtviNy534v3NCJ7vClcYo0GKnjTbZoVaTmBLHG2SEkfoq0GyVeRao+STPptglVohL2mGeywxVmrWlPN2cYqYn7RU0WeQcBZ8UnL7us1+wyz3GK2pXtsSZfqVasMctenwScEb7vYQmvzO5k3vu4gteFtfsYSd/3HAmWC6oNFvPI3qvr3sdkPSsIR8nnM9aKdjsb3LOJqbYiYYZY4yhjm/jIotda6/g9wZ9XHCGWyp413lZ/F7OdbsF3rTdbrtt9br5bvY53TPk8l1lj2C+8o8DTm/zBdt8IYPbz/WWOpCKQk3qHdScikQ1/tNX9I5I55mpRsJ9So4VTqEfaFXt8oh7l7jcCq2CWsv81CwXmGa6i1zrQa+pFzR60fmRCy70Txod9LVjBXShKq2+F1Hdx/3qBBV+5izH5cShcn/pYXsFe30n4vDdzBW857RjgdPfnwRP6ZXmDPG0hGCjL+ly2Pe6mWW3oMkvI3Yz2HLBE0cflfLNEWwxIc3p59lUvmq0xp1GtZF68kzwgA1aBEHcQxEAF6rRePTXNtFOcTelP9rNXElVnvcnH0hKWufKLEfv5gbbBXE7/ZcX1Wt2a/rCi/xMsNrgo4FT7F8FSyI5+xqNDvp7JY4zwW3eE+xzUwRSmXsckvSmfzBWd2V+JK7KjLTEKTYIbj2asmeaKg3+Nr0eZb3gIaWpdcx4z0rab2aKU+C7mrR42ND0W+UWChZHtjVb0kYjjxROkX8TPJ9OFHnuFryTpaifpwUbnQrOs1fSL7KSy1R7tPpmej3QGsGtRwrodLs1ZpzPe5L+MUdujHcE98tT6inBEidlSRR6QPBKxNtuFqw18EjgxNwlWOb4NOdGwbo2E+R1DpqnUE9/UO3iNiQm2+tQ5MlIm8TNOhJA/a0V3JBel1kk+Km81DrPSSY5TTnKnJvymtE+r4uYk0wyQXnacEs9LXhIfmqd737BC8o6D+jLWmw1Kr0eZ48GF6TAjHCbN9WqtsKsrERabrY1alVZ7gYnp0BdK1gbucyz7VPjc52FU+QxwTyFac5XJKw3AOW+510JSbXqBIf8JmLoky3Skn7WapVrdcPpqtQ5Ky3X02LBnM4CGm6LFpdHOP8sWKAYM7VKes8dppjm3x0U3JuSKrFAUO0+U0z3c+8L9pmOE7whRDyNbwtezagIUtRWMTrRQFusTK+LDccmTXjL0zb6rU0SeN0SF1mWkmu2SMKvvagFr3rUVcpsQ51tJhge+cZStcY4xasdn0++hwSPR+JvLysE14GYLmnT/mgdi7ybmXAL0ut7BU9k6HxFMDv383k5nN4mYLmWNKernhIqQdAsGZEOmoX0KpHVr8bT60r0jsCt9RomK+4Y0BBD7LM6wilRqlVdx4fbDtWha8RNeF3caH06BjRGLxW2RThFCiN7PTpqQlGGxa5XpV8k6x0W0FhsUhvhxMSEyMUcDQXkZeT43Sp0c0pHgEoMx7sRCyIhIe8YG+JCxCUinAM2Y2R2IZL9mR5OFmzN4DVqVnSYQB/T31QniaHZZitVtSlXhkatEU6rrRisWGN7gHrqpdHuDF6DOkPa6KkKDHCBmU5Na2n0mnn+6IMMT4Ry7M84d3aij67tA+qhm8YMC6JBFfqjzGjkK1JmsM+aYqgCu2yUQInRpplig+XW2uWQZsS9o9VAvJ/lGDVadddVdXuAShWpy8Ss0VaMVOhqcxCTp0iRPAkVFnpOqRHiNipwifOdarykppTNtPimJYZgS9a5NYjrkt275JpqrjclrcMove0X0i1Rq1UWW6OrbzlLT0Gll7xksYnOMSpd6u6wX3+DNNmQpbdTdfUktWqcnsWdar860+X7ooXqUg3OLuvt0iKot9rbGgVNKmywN9VUV3nMFMyUsMWwLK1f0mqjAe2f0D71TnRCFnejTU43zRKLLHeGGSYZoLcTNdtppfmWK3S2S41XrlCL3bZ51Qve0KjI2fKs8X6W1r4K1GloH1CNDwzIyMtQZZnTne9BlQ5Y5CW99NNXqToVdqS851FPGWiArurtttv+1PUPM1WwOMsyY0ahQn37gOqsN9FpijJcNHjB14wzzRMpq6pWbW1K8VQzlKDOU9bmWAp/ZZCtXs7i9jQOb2eFgjboGkmbcnJMmYWChW305cO8nWqvg5ciU4CPaIBVgn/J2fqZahzMGvK0SWNUiPtGDv8yDRpckcOfqFqwzGrBuznNTcwtkvY4I4f/I8HKzsyyi8wTvBxpgT6kHp4VrMj2CuVWCH7sUcGTOfXNBFsEP88oPGC4DYLbO4YD59unyVdz+Of4QPCTnDHMXYJt9kjknOtxnhBsMCaLn+cHgq0+0zlApR4RrM6JGwXmiDvgq1kh7dxUZKowOuusb9eiwddzvjDFDsEdbRQ/h6GJtgt+mY62H9EJnhHsdGEGt9xyIefC8l1jv6QHc7R8OIB4/UiGMjE3adbg+pw9jPGaYIuLMp7cJWQ5QqFZKgXP5fT6xe4Wt8+lnYcDPTwi+MAlORlnsjWCXWZFJqrTVHsv0un29F21gj/mhNgC31Iv7s4Ofppog4Z4WbDdX+dAmmS5oN4v0vVeFxc7N9W75zvNfE0SnsuBU+gaNYLH22oRO6ZxXhNUuCInqI30W02S1rnZqIjXlfgLd9kuOOCBnMsqcaNawcKc0NFpmmCFoNJNumY96eEeCUHCVv/hFlf7O7d5xvuSgkNuzIlIvf3YQUnPHduvHmMtknTIbVl3XmqeYI9NqV8Vk6mCo8l6tRK+n+UO3c3VqsWj+h8LHOhvnoTKyOwCZqjT6BuGuNpDFlttlUXud5mB7hBsNz5D/kqNDrm7jVx3FHSSFYLvRzhdPCZY5DiQp8wJynVNmfhgbwl+GJEv9Ijgyc6MqDoTKyttwQkRbxvu8+Lm2weS6lWq0pCqf7Z5Bl+MtMmFyrEuu/Y5WkCDjMX7kWp7spNts/Swb7yo1khj0+tmuzAxJ2EfMcX0dZk/CHaaGNnEXMH8dn7r6G254OYI52J1WjxhxtFFICg1yRxvaBTUuD49sqSHZYJvt/Nuvl8JHonErxJ3Oiio94rZxrWzmTbVDTTTApWSkio97cIMpx9ok9YOctFswdKMgWhXV1lknyBhp8dcqm9nDKa7aX5inRZBo1XmmJSTrcfZq87UdvVcKeFtfdvQfp932tWepkIjXOdF+wTJdvdwpjp7jWsX0IWabWkzJucb6GoLUr1bpQVmGhQxCBBzhrk2iwvqLevglqc7aFfuZCeDznNIhRGHff6hha7SKGixzr2ZVeU0mwVxm83thB8MtdTvOpAa1gmZmL4u9bhdkoKVf95ioV8L3nGdEZ0aS8X06TCixPTppIN3carv2PFRyV+AYv3xvLmCvE4VTtViHcp1RoYPRxlbjdffAHmSBThkg+m+bPix/nfUUVOJMwQb/jyuGee/0/+O9On8xS38sDD5KGEOM0O/T+l8YpI2e96eT+n7/8/ofwA7yx7/0lDFEAAAACV0RVh0ZGF0ZTpjcmVhdGUAMjAyMi0wOS0yNVQwMjoxMDozOCswMDowME5YXHEAAAAldEVYdGRhdGU6bW9kaWZ5ADIwMjItMDktMjVUMDI6MTA6MzgrMDA6MDA/BeTNAAAAIHRFWHRzb2Z0d2FyZQBodHRwczovL2ltYWdlbWFnaWNrLm9yZ7zPHZ0AAAAYdEVYdFRodW1iOjpEb2N1bWVudDo6UGFnZXMAMaf/uy8AAAAYdEVYdFRodW1iOjpJbWFnZTo6SGVpZ2h0ADE5MkBdcVUAAAAXdEVYdFRodW1iOjpJbWFnZTo6V2lkdGgAMTky06whCAAAABl0RVh0VGh1bWI6Ok1pbWV0eXBlAGltYWdlL3BuZz+yVk4AAAAXdEVYdFRodW1iOjpNVGltZQAxNjY0MDcxODM4EVZjywAAAA90RVh0VGh1bWI6OlNpemUAMEJClKI+7AAAAFZ0RVh0VGh1bWI6OlVSSQBmaWxlOi8vL21udGxvZy9mYXZpY29ucy8yMDIyLTA5LTI1L2RiNWU5Y2E0YjkyYjY4NGI0NWQ1MWQ3ZjViNTA0ODU1Lmljby5wbmdCYtu3AAAAAElFTkSuQmCC" parent="Qkq9aJakOe-U0SZYqxbO-33" vertex="1">
          <mxGeometry x="19.200000000000003" width="40.61" height="40.61" as="geometry" />
        </mxCell>
        <mxCell id="Qkq9aJakOe-U0SZYqxbO-51" value="" style="edgeStyle=none;rounded=0;orthogonalLoop=1;jettySize=auto;html=1;elbow=vertical;exitX=0.5;exitY=1;exitDx=0;exitDy=0;" parent="1" source="D2oyr3xWjkYmfhO6QAdO-5" target="Qkq9aJakOe-U0SZYqxbO-30" edge="1">
          <mxGeometry relative="1" as="geometry">
            <mxPoint x="393" y="180" as="sourcePoint" />
            <mxPoint x="413" y="250" as="targetPoint" />
          </mxGeometry>
        </mxCell>
        <mxCell id="Qkq9aJakOe-U0SZYqxbO-52" value="" style="edgeStyle=none;rounded=0;orthogonalLoop=1;jettySize=auto;html=1;elbow=vertical;exitX=0.5;exitY=1;exitDx=0;exitDy=0;fillColor=#d5e8d4;strokeColor=#82b366;" parent="1" source="Qkq9aJakOe-U0SZYqxbO-13" target="Qkq9aJakOe-U0SZYqxbO-23" edge="1">
          <mxGeometry relative="1" as="geometry">
            <mxPoint x="406.5" y="170" as="sourcePoint" />
            <mxPoint x="410.5" y="256" as="targetPoint" />
          </mxGeometry>
        </mxCell>
        <mxCell id="Qkq9aJakOe-U0SZYqxbO-53" value="" style="edgeStyle=none;rounded=0;orthogonalLoop=1;jettySize=auto;html=1;elbow=vertical;exitX=0.5;exitY=1;exitDx=0;exitDy=0;fillColor=#d5e8d4;strokeColor=#82b366;" parent="1" source="Qkq9aJakOe-U0SZYqxbO-13" target="Qkq9aJakOe-U0SZYqxbO-27" edge="1">
          <mxGeometry relative="1" as="geometry">
            <mxPoint x="510.5" y="164" as="sourcePoint" />
            <mxPoint x="493" y="230" as="targetPoint" />
          </mxGeometry>
        </mxCell>
        <mxCell id="D2oyr3xWjkYmfhO6QAdO-1" value="&lt;b&gt;&lt;font color=&quot;#ffffff&quot; style=&quot;background-color: rgb(0, 0, 51);&quot;&gt;10.10.10.10/8&lt;/font&gt;&lt;/b&gt;" style="text;strokeColor=none;align=center;fillColor=none;html=1;verticalAlign=middle;whiteSpace=wrap;rounded=0;" parent="1" vertex="1">
          <mxGeometry x="378.5" y="30" width="60" height="30" as="geometry" />
        </mxCell>
        <mxCell id="D2oyr3xWjkYmfhO6QAdO-3" value="&lt;b&gt;&lt;font color=&quot;#ffffff&quot; style=&quot;background-color: rgb(0, 0, 51);&quot;&gt;10.10.10.30/8&lt;/font&gt;&lt;/b&gt;" style="text;strokeColor=none;align=center;fillColor=none;html=1;verticalAlign=middle;whiteSpace=wrap;rounded=0;" parent="1" vertex="1">
          <mxGeometry x="477.5" y="323" width="60" height="30" as="geometry" />
        </mxCell>
        <mxCell id="D2oyr3xWjkYmfhO6QAdO-4" value="&lt;b&gt;&lt;font color=&quot;#ffffff&quot; style=&quot;background-color: rgb(0, 0, 51);&quot;&gt;10.10.10.20/8&lt;/font&gt;&lt;/b&gt;" style="text;strokeColor=none;align=center;fillColor=none;html=1;verticalAlign=middle;whiteSpace=wrap;rounded=0;" parent="1" vertex="1">
          <mxGeometry x="279.5" y="323" width="60" height="30" as="geometry" />
        </mxCell>
        <mxCell id="D2oyr3xWjkYmfhO6QAdO-6" value="" style="edgeStyle=none;rounded=0;orthogonalLoop=1;jettySize=auto;html=1;elbow=vertical;exitX=0.5;exitY=1;exitDx=0;exitDy=0;fillColor=#d5e8d4;strokeColor=#82b366;" parent="1" source="Qkq9aJakOe-U0SZYqxbO-13" target="D2oyr3xWjkYmfhO6QAdO-5" edge="1">
          <mxGeometry relative="1" as="geometry">
            <mxPoint x="409" y="164" as="sourcePoint" />
            <mxPoint x="409" y="380" as="targetPoint" />
          </mxGeometry>
        </mxCell>
        <mxCell id="D2oyr3xWjkYmfhO6QAdO-5" value="&lt;b&gt;&lt;font color=&quot;#ffffff&quot; style=&quot;background-color: rgb(0, 0, 51);&quot;&gt;10.10.10.30/8&lt;/font&gt;&lt;/b&gt;" style="text;strokeColor=none;align=center;fillColor=none;html=1;verticalAlign=middle;whiteSpace=wrap;rounded=0;" parent="1" vertex="1">
          <mxGeometry x="378.5" y="353" width="60" height="30" as="geometry" />
        </mxCell>
        <mxCell id="D2oyr3xWjkYmfhO6QAdO-7" value="Created By Mostafa Toumi" style="text;strokeColor=none;align=center;fillColor=none;html=1;verticalAlign=middle;whiteSpace=wrap;rounded=0;fontStyle=1;textOpacity=50;" parent="1" vertex="1">
          <mxGeometry x="318.5" y="220" width="180" height="30" as="geometry" />
        </mxCell>
        <mxCell id="l8VCfIzsIYU3uDYZG_e7-6" value="" style="group" vertex="1" connectable="0" parent="1">
          <mxGeometry x="680" y="60" width="60" height="66" as="geometry" />
        </mxCell>
        <mxCell id="l8VCfIzsIYU3uDYZG_e7-3" value="" style="sketch=0;pointerEvents=1;shadow=0;dashed=0;html=1;strokeColor=none;labelPosition=center;verticalLabelPosition=bottom;verticalAlign=top;align=center;fillColor=#515151;shape=mxgraph.mscae.system_center.admin_console" vertex="1" parent="l8VCfIzsIYU3uDYZG_e7-6">
          <mxGeometry x="5" width="50" height="36" as="geometry" />
        </mxCell>
        <mxCell id="l8VCfIzsIYU3uDYZG_e7-4" value="Alice Green" style="text;strokeColor=none;align=center;fillColor=none;html=1;verticalAlign=middle;whiteSpace=wrap;rounded=0;" vertex="1" parent="l8VCfIzsIYU3uDYZG_e7-6">
          <mxGeometry y="36" width="60" height="30" as="geometry" />
        </mxCell>
        <mxCell id="l8VCfIzsIYU3uDYZG_e7-7" value="" style="group" vertex="1" connectable="0" parent="1">
          <mxGeometry x="70" y="232" width="60" height="70" as="geometry" />
        </mxCell>
        <mxCell id="l8VCfIzsIYU3uDYZG_e7-1" value="" style="points=[[0.35,0,0],[0.98,0.51,0],[1,0.71,0],[0.67,1,0],[0,0.795,0],[0,0.65,0]];verticalLabelPosition=bottom;sketch=0;html=1;verticalAlign=top;aspect=fixed;align=center;pointerEvents=1;shape=mxgraph.cisco19.user;fillColor=#005073;strokeColor=none;" vertex="1" parent="l8VCfIzsIYU3uDYZG_e7-7">
          <mxGeometry x="10" width="40" height="40" as="geometry" />
        </mxCell>
        <mxCell id="l8VCfIzsIYU3uDYZG_e7-5" value="Bob Smith" style="text;strokeColor=none;align=center;fillColor=none;html=1;verticalAlign=middle;whiteSpace=wrap;rounded=0;" vertex="1" parent="l8VCfIzsIYU3uDYZG_e7-7">
          <mxGeometry y="40" width="60" height="30" as="geometry" />
        </mxCell>
        <mxCell id="l8VCfIzsIYU3uDYZG_e7-9" style="edgeStyle=orthogonalEdgeStyle;rounded=0;orthogonalLoop=1;jettySize=auto;html=1;exitX=0.447;exitY=0.347;exitDx=0;exitDy=0;exitPerimeter=0;" edge="1" parent="1" source="l8VCfIzsIYU3uDYZG_e7-15" target="Qkq9aJakOe-U0SZYqxbO-27">
          <mxGeometry relative="1" as="geometry" />
        </mxCell>
        <mxCell id="l8VCfIzsIYU3uDYZG_e7-13" style="edgeStyle=orthogonalEdgeStyle;rounded=0;orthogonalLoop=1;jettySize=auto;html=1;" edge="1" parent="1" source="l8VCfIzsIYU3uDYZG_e7-1" target="Qkq9aJakOe-U0SZYqxbO-23">
          <mxGeometry relative="1" as="geometry" />
        </mxCell>
        <mxCell id="l8VCfIzsIYU3uDYZG_e7-14" value="" style="group" vertex="1" connectable="0" parent="1">
          <mxGeometry x="730" y="232" width="60" height="70" as="geometry" />
        </mxCell>
        <mxCell id="l8VCfIzsIYU3uDYZG_e7-15" value="" style="points=[[0.35,0,0],[0.98,0.51,0],[1,0.71,0],[0.67,1,0],[0,0.795,0],[0,0.65,0]];verticalLabelPosition=bottom;sketch=0;html=1;verticalAlign=top;aspect=fixed;align=center;pointerEvents=1;shape=mxgraph.cisco19.user;fillColor=#005073;strokeColor=none;" vertex="1" parent="l8VCfIzsIYU3uDYZG_e7-14">
          <mxGeometry x="10" width="40" height="40" as="geometry" />
        </mxCell>
        <mxCell id="l8VCfIzsIYU3uDYZG_e7-16" value="&amp;nbsp;Emma White" style="text;strokeColor=none;align=center;fillColor=none;html=1;verticalAlign=middle;whiteSpace=wrap;rounded=0;" vertex="1" parent="l8VCfIzsIYU3uDYZG_e7-14">
          <mxGeometry y="40" width="60" height="30" as="geometry" />
        </mxCell>
        <mxCell id="l8VCfIzsIYU3uDYZG_e7-18" style="edgeStyle=orthogonalEdgeStyle;rounded=0;orthogonalLoop=1;jettySize=auto;html=1;" edge="1" parent="1" source="l8VCfIzsIYU3uDYZG_e7-3" target="Qkq9aJakOe-U0SZYqxbO-3">
          <mxGeometry relative="1" as="geometry" />
        </mxCell>
      </root>
    </mxGraphModel>
  </diagram>
</mxfile>
